<svg xmlns="http://www.w3.org/2000/svg" version="1.1" xmlns:xlink="http://www.w3.org/1999/xlink" xmlns:svgjs="http://svgjs.dev/svgjs" viewBox="0 0 800 800"><g fill="#818cf8"><path d="M136 309H186C214 309 236 331 236 359H186C158 359 136 337 136 309Z " transform="matrix(-0.17236254702629247,0.23723669349335144,-0.23723669349335144,-0.17236254702629247,297.2964893736698,347.4430657170183)"></path><path d="M292 210H342C370 210 392 232 392 260H342C314 260 292 238 292 210Z " transform="matrix(-0.37838624395142145,-0.013213538803875786,0.013213538803875786,-0.37838624395142145,468.30291381247537,328.4397975995096)"></path><path d="M644 170H694C722 170 744 192 744 220H694C666 220 644 198 644 170Z " transform="matrix(-0.22182372922775986,0.2142126853010915,-0.2142126853010915,-0.22182372922775986,889.7171417177783,89.59202360045568)"></path><path d="M140 155H190C218 155 240 177 240 205H190C162 205 140 183 140 155Z " transform="matrix(-0.1215658051908691,0.2492468373875192,-0.2492468373875192,-0.1215658051908691,257.9619337160186,154.5249458307278)"></path><path d="M208 499H258C286 499 308 521 308 549H258C230 549 208 527 208 499Z " transform="matrix(-0.276259825604126,0.17262629818383401,-0.17262629818383401,-0.276259825604126,419.73121525419344,624.2225636851329)"></path><path d="M281 610H331C359 610 381 632 381 660H331C303 660 281 638 281 610Z " transform="matrix(-0.3681341494896371,0.025742447441346086,-0.025742447441346086,-0.3681341494896371,469.1988576063246,860.244434822834)"></path><path d="M318 136H368C396 136 418 158 418 186H368C340 186 318 164 318 136Z " transform="matrix(-0.3795253206629127,-0.026538995725795805,0.026538995725795805,-0.3795253206629127,503.3925396920988,231.86992705382175)"></path><path d="M213 423H263C291 423 313 445 313 473H263C235 473 213 451 213 423Z " transform="matrix(-0.276259825604126,0.17262629818383401,-0.17262629818383401,-0.276259825604126,412.99291572024276,526.3636854483)"></path><path d="M439 246H489C517 246 539 268 539 296H489C461 296 439 274 439 246Z " transform="matrix(-0.38397757556412854,-0.05396452897678324,0.05396452897678324,-0.38397757556412854,662.1406470981506,401.4465776475258)"></path><path d="M556 165H606C634 165 656 187 656 215H606C578 215 556 193 556 165Z " transform="matrix(-0.3049696249127866,0.14220967160148987,-0.14220967160148987,-0.3049696249127866,817.8314303014319,161.7651677429266)"></path><path d="M496 314H546C574 314 596 336 596 364H546C518 364 496 342 496 314Z " transform="matrix(-0.3630799190633025,0.03816123723347221,-0.03816123723347221,-0.3630799190633025,757.1782952307102,441.24805703298375)"></path><path d="M549 408H599C627 408 649 430 649 458H599C571 458 549 436 549 408Z " transform="matrix(-0.32020839284921604,0.12291648573130562,-0.12291648573130562,-0.32020839284921604,844.0276656383357,498.0232591506585)"></path><path d="M-12 239H38C66 239 88 261 88 289H38C10 289 -12 267 -12 239Z " transform="matrix(-0.3202298655174439,0.12292472831637455,-0.12292472831637455,-0.3202298655174439,82.62086316518574,343.869544820583)"></path><path d="M203 583H253C281 583 303 605 303 633H253C225 633 203 611 203 583Z " transform="matrix(-0.276259825604126,0.17262629818383401,-0.17262629818383401,-0.276259825604126,427.850525173615,732.2915205267985)"></path><path d="M137 644H187C215 644 237 666 237 694H187C159 694 137 672 137 644Z " transform="matrix(-0.17236254702629247,0.23723669349335144,-0.23723669349335144,-0.17236254702629247,377.9431442409688,739.947282277333)"></path><path d="M550 15H600C628 15 650 37 650 65H600C572 65 550 43 550 15Z " transform="matrix(-0.38131838307588933,-0.1387885412181409,0.1387885412181409,-0.38131838307588933,823.239488196808,138.5258600539201)"></path></g><g fill="none" stroke-width="3" stroke="#818cf8"><path d="M300 459H350C378 459 400 481 400 509H350C322 509 300 487 300 459Z " transform="matrix(-0.37838624395142145,-0.013213538803875786,0.013213538803875786,-0.37838624395142145,476.0398326019216,671.7636806538445)"></path><path d="M708 502H758C786 502 808 524 808 552H758C730 552 708 530 708 502Z " transform="matrix(-0.16202126635706549,0.24020640556999173,-0.24020640556999173,-0.16202126635706549,1007.4008956340413,430.3087519481198)"></path><path d="M188 10H238C266 10 288 32 288 60H238C210 60 188 38 188 10Z " transform="matrix(0.038610922318190764,0.21897342178182685,-0.21897342178182685,0.038610922318190764,236.47467025063455,-18.467056665211466)"></path><path d="M59 101H109C137 101 159 123 159 151H109C81 151 59 129 59 101Z " transform="matrix(-0.0866213630489846,0.2515667048059678,-0.2515667048059678,-0.0866213630489846,150.13913337789126,109.49352092032157)"></path><path d="M714 582H764C792 582 814 604 814 632H764C736 632 714 610 714 582Z " transform="matrix(-0.16202126635706549,0.24020640556999173,-0.24020640556999173,-0.16202126635706549,1033.589535677783,521.829214823265)"></path><path d="M387 482H437C465 482 487 504 487 532H437C409 532 387 510 387 482Z " transform="matrix(-0.38397719322105495,-0.11739360894805667,0.11739360894805667,-0.38397719322105495,545.2794737009363,752.9774440733756)"></path><path d="M469 445H519C547 445 569 467 569 495H519C491 495 469 473 469 445Z " transform="matrix(-0.3729170240037639,0.0065092908668233475,-0.0065092908668233475,-0.3729170240037639,715.6033021653604,641.8926793218877)"></path><path d="M606 239H656C684 239 706 261 706 289H656C628 289 606 267 606 239Z " transform="matrix(-0.25477380818894596,0.1919858350208926,-0.1919858350208926,-0.25477380818894596,873.8158786174643,205.3175775881762)"></path><path d="M213 664H263C291 664 313 686 313 714H263C235 714 213 692 213 664Z " transform="matrix(-0.276259825604126,0.17262629818383401,-0.17262629818383401,-0.276259825604126,454.59585358254674,833.9423034188944)"></path><path d="M411 322H461C489 322 511 344 511 372H461C433 372 411 350 411 322Z " transform="matrix(-0.38493916544121176,-0.10314413851508285,0.10314413851508285,-0.38493916544121176,602.6659392036648,528.1233382635537)"></path><path d="M207 336H257C285 336 307 358 307 386H257C229 386 207 364 207 336Z " transform="matrix(-0.276259825604126,0.17262629818383401,-0.17262629818383401,-0.276259825604126,390.3168688246245,416.36483840984414)"></path><path d="M126 69H176C204 69 226 91 226 119H176C148 119 126 97 126 69Z " transform="matrix(0.04561297297997073,0.21459216606439735,-0.21459216606439735,0.04561297297997073,188.1437803655785,51.94415931254882)"></path><path d="M-13 569H37C65 569 87 591 87 619H37C9 619 -13 597 -13 569Z " transform="matrix(-0.3202298655174439,0.12292472831637455,-0.12292472831637455,-0.3202298655174439,121.86579364407191,779.6683251696559)"></path><path d="M138 393H188C216 393 238 415 238 443H188C160 443 138 421 138 393Z " transform="matrix(-0.17236254702629247,0.23723669349335144,-0.23723669349335144,-0.17236254702629247,319.56909672116393,445.44704628024016)"></path><path d="M203 240H253C281 240 303 262 303 290H253C225 290 203 268 203 240Z " transform="matrix(-0.276259825604126,0.17262629818383401,-0.17262629818383401,-0.276259825604126,368.63970489655986,294.53440034458333)"></path></g></svg>